<svg width="0" height="0" class="hidden">
  <symbol xmlns="http://www.w3.org/2000/svg" fill="none" viewBox="0 0 24 24" stroke-width="1.5" stroke="currentColor" id="light">
    <path stroke-linecap="round" stroke-linejoin="round" d="M12 3v2.25m6.364.386l-1.591 1.591M21 12h-2.25m-.386 6.364l-1.591-1.591M12 18.75V21m-4.773-4.227l-1.591 1.591M5.25 12H3m4.227-4.773L5.636 5.636M15.75 12a3.75 3.75 0 11-7.5 0 3.75 3.75 0 017.5 0z" />
  </symbol>

  <symbol xmlns="http://www.w3.org/2000/svg" viewBox="0 0 24 24" fill="currentColor" id="dark">
    <path fill-rule="evenodd" d="M9.528 1.718a.75.75 0 01.162.819A8.97 8.97 0 009 6a9 9 0 009 9 8.97 8.97 0 003.463-.69.75.75 0 01.981.98 10.503 10.503 0 01-9.694 6.46c-5.799 0-10.5-4.701-10.5-10.5 0-4.368 2.667-8.112 6.46-9.694a.75.75 0 01.818.162z" clip-rule="evenodd" />
  </symbol>

  <symbol class="w-4 h-4 text-gray-500 dark:text-gray-400" aria-hidden="true" xmlns="http://www.w3.org/2000/svg" fill="none" id="search">
    <path stroke="currentColor" stroke-linecap="round" stroke-linejoin="round" stroke-width="2" d="m19 19-4-4m0-7A7 7 0 1 1 1 8a7 7 0 0 1 14 0Z" />
  </symbol>

  <symbol xmlns="http://www.w3.org/2000/svg" viewBox="0 0 24 24" fill="currentColor" id="favorite">
  <path d="M11.645 20.91l-.007-.003-.022-.012a15.247 15.247 0 01-.383-.218 25.18 25.18 0 01-4.244-3.17C4.688 15.36 2.25 12.174 2.25 8.25 2.25 5.322 4.714 3 7.688 3A5.5 5.5 0 0112 5.052 5.5 5.5 0 0116.313 3c2.973 0 5.437 2.322 5.437 5.25 0 3.925-2.438 7.111-4.739 9.256a25.175 25.175 0 01-4.244 3.17 15.247 15.247 0 01-.383.219l-.022.012-.007.004-.003.001a.752.752 0 01-.704 0l-.003-.001z" />
  </symbol>

  <symbol xmlns="http://www.w3.org/2000/svg" fill="none" viewBox="0 0 24 24" stroke-width="1.5" stroke="currentColor" id="cart">
    <path stroke-linecap="round" stroke-linejoin="round" d="M2.25 3h1.386c.51 0 .955.343 1.087.835l.383 1.437M7.5 14.25a3 3 0 00-3 3h15.75m-12.75-3h11.218c1.121-2.3 2.1-4.684 2.924-7.138a60.114 60.114 0 00-16.536-1.84M7.5 14.25L5.106 5.272M6 20.25a.75.75 0 11-1.5 0 .75.75 0 011.5 0zm12.75 0a.75.75 0 11-1.5 0 .75.75 0 011.5 0z" />
  </symbol>

  <symbol xmlns="http://www.w3.org/2000/svg" viewBox="0 0 24 24" fill="currentColor" id="remove">
  <path fill-rule="evenodd" d="M16.5 4.478v.227a48.816 48.816 0 013.878.512.75.75 0 11-.256 1.478l-.209-.035-1.005 13.07a3 3 0 01-2.991 2.77H8.084a3 3 0 01-2.991-2.77L4.087 6.66l-.209.035a.75.75 0 01-.256-1.478A48.567 48.567 0 017.5 4.705v-.227c0-1.564 1.213-2.9 2.816-2.951a52.662 52.662 0 013.369 0c1.603.051 2.815 1.387 2.815 2.951zm-6.136-1.452a51.196 51.196 0 013.273 0C14.39 3.05 15 3.684 15 4.478v.113a49.488 49.488 0 00-6 0v-.113c0-.794.609-1.428 1.364-1.452zm-.355 5.945a.75.75 0 10-1.5.058l.347 9a.75.75 0 101.499-.058l-.346-9zm5.48.058a.75.75 0 10-1.498-.058l-.347 9a.75.75 0 001.5.058l.345-9z" clip-rule="evenodd" />
</symbol>
<symbol xmlns="http://www.w3.org/2000/svg" viewBox="0 0 24 24" fill="currentColor" id="camera">
  <path d="M12 9a3.75 3.75 0 100 7.5A3.75 3.75 0 0012 9z" />
  <path fill-rule="evenodd" d="M9.344 3.071a49.52 49.52 0 015.312 0c.967.052 1.83.585 2.332 1.39l.821 1.317c.24.383.645.643 1.11.71.386.054.77.113 1.152.177 1.432.239 2.429 1.493 2.429 2.909V18a3 3 0 01-3 3h-15a3 3 0 01-3-3V9.574c0-1.416.997-2.67 2.429-2.909.382-.064.766-.123 1.151-.178a1.56 1.56 0 001.11-.71l.822-1.315a2.942 2.942 0 012.332-1.39zM6.75 12.75a5.25 5.25 0 1110.5 0 5.25 5.25 0 01-10.5 0zm12-1.5a.75.75 0 100-1.5.75.75 0 000 1.5z" clip-rule="evenodd" />
</symbol>
<symbol xmlns="http://www.w3.org/2000/svg" viewBox="0 0 24 24" fill="currentColor" id="profile">
  <path fill-rule="evenodd" d="M18.685 19.097A9.723 9.723 0 0021.75 12c0-5.385-4.365-9.75-9.75-9.75S2.25 6.615 2.25 12a9.723 9.723 0 003.065 7.097A9.716 9.716 0 0012 21.75a9.716 9.716 0 006.685-2.653zm-12.54-1.285A7.486 7.486 0 0112 15a7.486 7.486 0 015.855 2.812A8.224 8.224 0 0112 20.25a8.224 8.224 0 01-5.855-2.438zM15.75 9a3.75 3.75 0 11-7.5 0 3.75 3.75 0 017.5 0z" clip-rule="evenodd" />
</symbol>
</svg>





